
<svg width="205" height="36" viewBox="0 0 205 36" fill="none" xmlns="http://www.w3.org/2000/svg">
<path d="M65.7732 26C65.5401 25.3173 65.2986 24.643 65.0489 23.977C64.7991 23.311 64.5577 22.6283 64.3246 21.929H57.0317C56.7986 22.6283 56.5572 23.3193 56.3074 24.002C56.0743 24.668 55.8412 25.334 55.6081 26H52.3363C52.9857 24.1518 53.6017 22.4451 54.1845 20.88C54.7673 19.3149 55.3334 17.833 55.8828 16.4343C56.449 15.0357 57.0067 13.7037 57.5562 12.4382C58.1057 11.1728 58.6718 9.92403 59.2545 8.6919H62.2266C62.8094 9.92403 63.3755 11.1728 63.925 12.4382C64.4745 13.7037 65.0239 15.0357 65.5734 16.4343C66.1395 17.833 66.7139 19.3149 67.2967 20.88C67.8961 22.4451 68.5205 24.1518 69.1699 26H65.7732ZM60.6782 12.0386C60.2952 12.9211 59.854 13.9951 59.3545 15.2605C58.8716 16.5259 58.3638 17.8996 57.8309 19.3815H63.5254C62.9926 17.8996 62.4764 16.5176 61.9769 15.2355C61.4774 13.9534 61.0445 12.8878 60.6782 12.0386ZM71.3576 8.6919H74.5045V26H71.3576V8.6919ZM84.4795 8.6919H87.6264V26H84.4795V8.6919ZM91.6224 13.3623C92.2051 13.1958 92.9627 13.0377 93.8951 12.8878C94.8276 12.738 95.8599 12.663 96.9921 12.663C98.0577 12.663 98.9485 12.8129 99.6645 13.1126C100.38 13.3956 100.947 13.8036 101.363 14.3364C101.796 14.8526 102.095 15.4853 102.262 16.2345C102.445 16.9672 102.537 17.7747 102.537 18.6572V26H99.5146V19.1317C99.5146 18.4324 99.4647 17.8413 99.3648 17.3584C99.2815 16.8589 99.1317 16.4593 98.9152 16.1596C98.7154 15.8433 98.4324 15.6185 98.0661 15.4853C97.7164 15.3354 97.2835 15.2605 96.7673 15.2605C96.3844 15.2605 95.9848 15.2855 95.5685 15.3354C95.1522 15.3854 94.8442 15.427 94.6444 15.4603V26H91.6224V13.3623ZM109.504 23.8271C110.303 23.8271 110.886 23.7355 111.252 23.5524C111.619 23.3526 111.802 23.0196 111.802 22.5534C111.802 22.1205 111.602 21.7625 111.202 21.4794C110.819 21.1964 110.178 20.8883 109.279 20.5553C108.73 20.3555 108.222 20.1474 107.756 19.9309C107.306 19.6978 106.915 19.4314 106.582 19.1317C106.249 18.832 105.982 18.474 105.783 18.0578C105.599 17.6248 105.508 17.1004 105.508 16.4843C105.508 15.2855 105.949 14.3447 106.832 13.662C107.714 12.9627 108.913 12.6131 110.428 12.6131C111.194 12.6131 111.927 12.688 112.626 12.8379C113.325 12.9711 113.85 13.1043 114.199 13.2375L113.65 15.6851C113.317 15.5352 112.892 15.402 112.376 15.2855C111.86 15.1523 111.261 15.0857 110.578 15.0857C109.962 15.0857 109.462 15.1939 109.079 15.4103C108.696 15.6101 108.505 15.9265 108.505 16.3594C108.505 16.5759 108.538 16.7673 108.605 16.9339C108.688 17.1004 108.821 17.2585 109.004 17.4084C109.188 17.5416 109.429 17.6831 109.729 17.833C110.028 17.9662 110.395 18.1077 110.828 18.2576C111.544 18.524 112.151 18.7904 112.651 19.0568C113.15 19.3065 113.558 19.5979 113.875 19.9309C114.208 20.2473 114.449 20.6136 114.599 21.0299C114.749 21.4461 114.824 21.9456 114.824 22.5284C114.824 23.7772 114.358 24.7262 113.425 25.3756C112.509 26.0083 111.194 26.3247 109.479 26.3247C108.33 26.3247 107.406 26.2248 106.707 26.025C106.007 25.8418 105.516 25.692 105.233 25.5754L105.758 23.0529C106.207 23.236 106.74 23.4109 107.356 23.5774C107.989 23.7439 108.705 23.8271 109.504 23.8271ZM120.694 26H117.672V12.9378H120.694V26ZM121.018 9.11649C121.018 9.6826 120.835 10.1322 120.469 10.4652C120.103 10.7982 119.67 10.9647 119.17 10.9647C118.654 10.9647 118.213 10.7982 117.847 10.4652C117.48 10.1322 117.297 9.6826 117.297 9.11649C117.297 8.53372 117.48 8.07584 117.847 7.74283C118.213 7.40982 118.654 7.24332 119.17 7.24332C119.67 7.24332 120.103 7.40982 120.469 7.74283C120.835 8.07584 121.018 8.53372 121.018 9.11649ZM126.922 19.1317C126.922 20.4138 127.197 21.3545 127.746 21.954C128.312 22.5367 129.036 22.8281 129.919 22.8281C130.402 22.8281 130.851 22.7615 131.268 22.6283C131.701 22.4951 132.05 22.3369 132.317 22.1538V15.3854C132.1 15.3354 131.834 15.2938 131.517 15.2605C131.201 15.2105 130.801 15.1856 130.319 15.1856C129.22 15.1856 128.379 15.5519 127.796 16.2845C127.213 17.0005 126.922 17.9495 126.922 19.1317ZM135.339 24.6763C135.339 26.7576 134.806 28.2811 133.74 29.2468C132.691 30.2126 131.076 30.6954 128.895 30.6954C128.096 30.6954 127.313 30.6288 126.547 30.4956C125.798 30.3624 125.115 30.1876 124.499 29.9711L125.049 27.3986C125.565 27.6151 126.148 27.7899 126.797 27.9231C127.463 28.0563 128.179 28.1229 128.945 28.1229C130.16 28.1229 131.026 27.8732 131.542 27.3737C132.059 26.8741 132.317 26.1332 132.317 25.1508V24.6513C132.017 24.8012 131.617 24.951 131.118 25.1009C130.635 25.2507 130.077 25.3257 129.444 25.3257C128.612 25.3257 127.846 25.1925 127.147 24.926C126.464 24.6596 125.873 24.2684 125.373 23.7522C124.891 23.236 124.508 22.595 124.224 21.8291C123.958 21.0465 123.825 20.1474 123.825 19.1317C123.825 18.1826 123.966 17.3085 124.249 16.5093C124.549 15.71 124.974 15.0274 125.523 14.4613C126.089 13.8952 126.772 13.4539 127.571 13.1376C128.37 12.8212 129.278 12.663 130.294 12.663C131.276 12.663 132.208 12.738 133.091 12.8878C133.973 13.0377 134.723 13.1958 135.339 13.3623V24.6763ZM139.183 26V7.11844L142.205 6.61893V13.0876C142.538 12.9711 142.921 12.8712 143.354 12.7879C143.804 12.7046 144.245 12.663 144.678 12.663C145.727 12.663 146.593 12.8129 147.275 13.1126C147.975 13.3956 148.533 13.8036 148.949 14.3364C149.365 14.8526 149.656 15.4769 149.823 16.2096C150.006 16.9422 150.098 17.758 150.098 18.6572V26H147.076V19.1317C147.076 18.4324 147.026 17.8413 146.926 17.3584C146.843 16.8589 146.693 16.4593 146.476 16.1596C146.276 15.8433 146.002 15.6185 145.652 15.4853C145.302 15.3354 144.869 15.2605 144.353 15.2605C143.954 15.2605 143.546 15.3021 143.129 15.3854C142.713 15.4686 142.405 15.5435 142.205 15.6101V26H139.183ZM153.57 9.49112L156.592 8.99161V12.9378H161.238V15.4603H156.592V20.7801C156.592 21.8291 156.759 22.5783 157.092 23.0279C157.425 23.4775 157.991 23.7022 158.79 23.7022C159.339 23.7022 159.822 23.644 160.239 23.5274C160.671 23.4109 161.013 23.3026 161.263 23.2027L161.762 25.6004C161.412 25.7502 160.955 25.9001 160.388 26.05C159.822 26.2165 159.156 26.2997 158.39 26.2997C157.458 26.2997 156.675 26.1748 156.043 25.9251C155.427 25.6753 154.935 25.3173 154.569 24.8511C154.203 24.3683 153.945 23.7938 153.795 23.1278C153.645 22.4451 153.57 21.6709 153.57 20.8051V9.49112Z" fill="#333333"/>
<path d="M169.529 26.1998C168.613 26.1998 167.689 26.1665 166.756 26.0999C165.824 26.05 165.008 25.9334 164.309 25.7502V8.94166C164.675 8.87506 165.066 8.81678 165.483 8.76683C165.899 8.70023 166.323 8.65028 166.756 8.61698C167.189 8.58367 167.614 8.5587 168.03 8.54205C168.463 8.5254 168.871 8.51707 169.254 8.51707C170.303 8.51707 171.277 8.60032 172.176 8.76683C173.075 8.91668 173.849 9.17476 174.499 9.54107C175.165 9.90738 175.681 10.3902 176.047 10.9897C176.414 11.5891 176.597 12.33 176.597 13.2125C176.597 14.0284 176.397 14.7277 175.997 15.3104C175.614 15.8932 175.073 16.3594 174.374 16.7091C175.423 17.0587 176.197 17.5749 176.697 18.2576C177.196 18.9402 177.446 19.806 177.446 20.855C177.446 22.6366 176.797 23.977 175.498 24.8761C174.199 25.7586 172.209 26.1998 169.529 26.1998ZM167.406 18.2076V23.4775C167.755 23.5108 168.13 23.5357 168.53 23.5524C168.929 23.569 169.296 23.5774 169.629 23.5774C170.278 23.5774 170.877 23.5357 171.427 23.4525C171.993 23.3692 172.476 23.2277 172.875 23.0279C173.292 22.8114 173.616 22.5284 173.849 22.1787C174.099 21.8291 174.224 21.3795 174.224 20.83C174.224 19.8477 173.866 19.165 173.15 18.782C172.434 18.3991 171.443 18.2076 170.178 18.2076H167.406ZM167.406 15.735H169.629C170.827 15.735 171.768 15.5685 172.451 15.2355C173.134 14.8859 173.475 14.2698 173.475 13.3873C173.475 12.5548 173.117 11.9637 172.401 11.614C171.702 11.2644 170.786 11.0896 169.654 11.0896C169.171 11.0896 168.738 11.0979 168.355 11.1145C167.989 11.1312 167.672 11.1562 167.406 11.1895V15.735ZM192.387 19.4564C192.387 20.4887 192.237 21.4295 191.937 22.2786C191.638 23.1278 191.213 23.8521 190.664 24.4515C190.114 25.0509 189.448 25.5171 188.666 25.8501C187.9 26.1832 187.051 26.3497 186.118 26.3497C185.186 26.3497 184.337 26.1832 183.571 25.8501C182.805 25.5171 182.147 25.0509 181.598 24.4515C181.048 23.8521 180.615 23.1278 180.299 22.2786C179.999 21.4295 179.849 20.4887 179.849 19.4564C179.849 18.4241 179.999 17.4916 180.299 16.6591C180.615 15.81 181.048 15.0857 181.598 14.4862C182.164 13.8868 182.83 13.4289 183.596 13.1126C184.362 12.7796 185.202 12.6131 186.118 12.6131C187.034 12.6131 187.875 12.7796 188.641 13.1126C189.423 13.4289 190.089 13.8868 190.639 14.4862C191.188 15.0857 191.613 15.81 191.912 16.6591C192.229 17.4916 192.387 18.4241 192.387 19.4564ZM189.29 19.4564C189.29 18.1577 189.007 17.1337 188.441 16.3844C187.891 15.6185 187.117 15.2355 186.118 15.2355C185.119 15.2355 184.337 15.6185 183.77 16.3844C183.221 17.1337 182.946 18.1577 182.946 19.4564C182.946 20.7718 183.221 21.8124 183.77 22.5783C184.337 23.3443 185.119 23.7272 186.118 23.7272C187.117 23.7272 187.891 23.3443 188.441 22.5783C189.007 21.8124 189.29 20.7718 189.29 19.4564ZM195.351 9.49112L198.373 8.99161V12.9378H203.018V15.4603H198.373V20.7801C198.373 21.8291 198.539 22.5783 198.872 23.0279C199.205 23.4775 199.771 23.7022 200.57 23.7022C201.12 23.7022 201.603 23.644 202.019 23.5274C202.452 23.4109 202.793 23.3026 203.043 23.2027L203.543 25.6004C203.193 25.7502 202.735 25.9001 202.169 26.05C201.603 26.2165 200.937 26.2997 200.171 26.2997C199.238 26.2997 198.456 26.1748 197.823 25.9251C197.207 25.6753 196.716 25.3173 196.35 24.8511C195.983 24.3683 195.725 23.7938 195.575 23.1278C195.425 22.4451 195.351 21.6709 195.351 20.8051V9.49112Z" fill="#2C4BFF"/>
<rect x="2" y="2" width="37.7236" height="25.7561" rx="3.12195" stroke="black" stroke-width="2.0813"/>
<circle cx="12.4067" cy="14.748" r="4.1626" stroke="black" stroke-width="2.0813"/>
<circle cx="13.4477" cy="14.748" r="1.56098" fill="black"/>
<circle cx="29.5776" cy="14.748" r="4.1626" stroke="black" stroke-width="2.0813"/>
<circle cx="30.6186" cy="14.748" r="1.56098" fill="black"/>
<path d="M8.24414 34H33.7401" stroke="black" stroke-width="2.0813" stroke-linecap="round"/>
</svg>
