<svg width="194" height="36" viewBox="0 0 194 36" fill="none" xmlns="http://www.w3.org/2000/svg">
<path d="M65.7732 26C65.5401 25.3173 65.2986 24.643 65.0489 23.977C64.7991 23.311 64.5577 22.6283 64.3246 21.929H57.0317C56.7986 22.6283 56.5572 23.3193 56.3074 24.002C56.0743 24.668 55.8412 25.334 55.6081 26H52.3363C52.9857 24.1518 53.6017 22.4451 54.1845 20.88C54.7673 19.3149 55.3334 17.833 55.8828 16.4343C56.449 15.0357 57.0067 13.7037 57.5562 12.4382C58.1057 11.1728 58.6718 9.92403 59.2545 8.6919H62.2266C62.8094 9.92403 63.3755 11.1728 63.925 12.4382C64.4745 13.7037 65.0239 15.0357 65.5734 16.4343C66.1395 17.833 66.7139 19.3149 67.2967 20.88C67.8961 22.4451 68.5205 24.1518 69.1699 26H65.7732ZM60.6782 12.0386C60.2952 12.9211 59.854 13.9951 59.3545 15.2605C58.8716 16.5259 58.3638 17.8996 57.8309 19.3815H63.5254C62.9926 17.8996 62.4764 16.5176 61.9769 15.2355C61.4774 13.9534 61.0445 12.8878 60.6782 12.0386ZM71.3576 8.6919H74.5045V26H71.3576V8.6919ZM88.6754 23.6523C89.8077 23.6523 90.6318 23.4608 91.148 23.0779C91.6642 22.6949 91.9223 22.1538 91.9223 21.4544C91.9223 21.0382 91.8307 20.6802 91.6475 20.3805C91.481 20.0808 91.2313 19.8144 90.8983 19.5813C90.5819 19.3315 90.1906 19.1067 89.7244 18.9069C89.2582 18.6905 88.7254 18.4823 88.126 18.2825C87.5265 18.0661 86.9438 17.833 86.3777 17.5832C85.8282 17.3168 85.337 16.9921 84.9041 16.6092C84.4878 16.2262 84.1465 15.7683 83.8801 15.2355C83.6304 14.7027 83.5055 14.0617 83.5055 13.3124C83.5055 11.7473 84.0466 10.5234 85.1289 9.64098C86.2112 8.74185 87.6847 8.29229 89.5496 8.29229C90.6318 8.29229 91.5892 8.41717 92.4218 8.66693C93.2709 8.90003 93.937 9.15811 94.4198 9.44117L93.4458 11.9887C92.8797 11.6723 92.2553 11.4309 91.5726 11.2644C90.9066 11.0979 90.2156 11.0146 89.4996 11.0146C88.6504 11.0146 87.9844 11.1895 87.5016 11.5391C87.0354 11.8888 86.8023 12.38 86.8023 13.0127C86.8023 13.3956 86.8772 13.7287 87.027 14.0117C87.1935 14.2781 87.4183 14.5195 87.7014 14.736C88.0011 14.9525 88.3424 15.1523 88.7254 15.3354C89.125 15.5186 89.5579 15.6934 90.0241 15.8599C90.84 16.1596 91.5643 16.4676 92.197 16.784C92.8464 17.0837 93.3875 17.45 93.8204 17.8829C94.27 18.2992 94.6113 18.7987 94.8444 19.3815C95.0775 19.9476 95.1941 20.6386 95.1941 21.4544C95.1941 23.0196 94.6363 24.2351 93.5207 25.1009C92.4218 25.95 90.8067 26.3746 88.6754 26.3746C87.9595 26.3746 87.3018 26.3247 86.7024 26.2248C86.1196 26.1415 85.5951 26.0333 85.1289 25.9001C84.6793 25.7669 84.288 25.6337 83.955 25.5005C83.622 25.3506 83.3556 25.2174 83.1558 25.1009L84.0799 22.5284C84.5295 22.7781 85.1372 23.0279 85.9031 23.2777C86.669 23.5274 87.5931 23.6523 88.6754 23.6523ZM105.26 19.1317C105.26 17.7664 105.085 16.784 104.736 16.1846C104.403 15.5685 103.77 15.2605 102.838 15.2605C102.505 15.2605 102.138 15.2855 101.739 15.3354C101.339 15.3854 101.039 15.427 100.84 15.4603V26H97.8175V13.3623C98.4002 13.1958 99.1578 13.0377 100.09 12.8878C101.039 12.738 102.038 12.663 103.087 12.663C103.986 12.663 104.719 12.7796 105.285 13.0127C105.868 13.2458 106.351 13.5538 106.734 13.9368C106.917 13.8036 107.15 13.662 107.433 13.5122C107.716 13.3623 108.032 13.2291 108.382 13.1126C108.732 12.9794 109.098 12.8712 109.481 12.7879C109.881 12.7046 110.28 12.663 110.68 12.663C111.696 12.663 112.528 12.8129 113.177 13.1126C113.843 13.3956 114.36 13.8036 114.726 14.3364C115.109 14.8526 115.367 15.4853 115.5 16.2345C115.65 16.9672 115.725 17.7747 115.725 18.6572V26H112.703V19.1317C112.703 17.7664 112.536 16.784 112.203 16.1846C111.87 15.5685 111.229 15.2605 110.28 15.2605C109.797 15.2605 109.34 15.3437 108.907 15.5102C108.474 15.6601 108.149 15.81 107.933 15.9598C108.066 16.3761 108.157 16.8173 108.207 17.2835C108.257 17.7497 108.282 18.2492 108.282 18.782V26H105.26V19.1317ZM124.023 23.8771C124.955 23.8771 125.663 23.8271 126.146 23.7272V20.3805C125.979 20.3305 125.738 20.2806 125.421 20.2306C125.105 20.1807 124.755 20.1557 124.372 20.1557C124.039 20.1557 123.698 20.1807 123.348 20.2306C123.015 20.2806 122.707 20.3722 122.424 20.5054C122.158 20.6386 121.941 20.83 121.775 21.0798C121.608 21.3129 121.525 21.6126 121.525 21.9789C121.525 22.6949 121.75 23.1944 122.2 23.4775C122.649 23.7439 123.257 23.8771 124.023 23.8771ZM123.773 12.6131C124.772 12.6131 125.613 12.738 126.296 12.9877C126.978 13.2375 127.519 13.5871 127.919 14.0367C128.335 14.4862 128.627 15.0357 128.793 15.6851C128.976 16.3178 129.068 17.0171 129.068 17.783V25.7003C128.602 25.8002 127.894 25.9167 126.945 26.05C126.012 26.1998 124.955 26.2747 123.773 26.2747C122.99 26.2747 122.274 26.1998 121.625 26.05C120.976 25.9001 120.418 25.6587 119.952 25.3257C119.502 24.9927 119.144 24.5597 118.878 24.0269C118.628 23.4941 118.503 22.8364 118.503 22.0539C118.503 21.3046 118.645 20.6719 118.928 20.1557C119.227 19.6395 119.627 19.2233 120.127 18.9069C120.626 18.5739 121.2 18.3408 121.85 18.2076C122.516 18.0578 123.207 17.9828 123.923 17.9828C124.256 17.9828 124.606 18.0078 124.972 18.0578C125.338 18.0911 125.729 18.1577 126.146 18.2576V17.758C126.146 17.4084 126.104 17.0754 126.021 16.759C125.938 16.4427 125.788 16.1679 125.571 15.9348C125.371 15.6851 125.097 15.4936 124.747 15.3604C124.414 15.2272 123.989 15.1606 123.473 15.1606C122.774 15.1606 122.133 15.2105 121.55 15.3104C120.967 15.4103 120.493 15.5269 120.127 15.6601L119.752 13.2125C120.135 13.0793 120.693 12.9461 121.425 12.8129C122.158 12.6797 122.94 12.6131 123.773 12.6131ZM140.211 15.6601C139.962 15.5768 139.612 15.4936 139.162 15.4103C138.73 15.3104 138.222 15.2605 137.639 15.2605C137.306 15.2605 136.948 15.2938 136.565 15.3604C136.199 15.427 135.941 15.4853 135.791 15.5352V26H132.769V13.5621C133.351 13.3457 134.076 13.1459 134.942 12.9627C135.824 12.7629 136.798 12.663 137.864 12.663C138.064 12.663 138.297 12.6797 138.563 12.713C138.829 12.7296 139.096 12.7629 139.362 12.8129C139.629 12.8462 139.887 12.8961 140.136 12.9627C140.386 13.0127 140.586 13.0626 140.736 13.1126L140.211 15.6601ZM142.692 9.49112L145.714 8.99161V12.9378H150.36V15.4603H145.714V20.7801C145.714 21.8291 145.881 22.5783 146.214 23.0279C146.547 23.4775 147.113 23.7022 147.912 23.7022C148.461 23.7022 148.944 23.644 149.36 23.5274C149.793 23.4109 150.135 23.3026 150.384 23.2027L150.884 25.6004C150.534 25.7502 150.076 25.9001 149.51 26.05C148.944 26.2165 148.278 26.2997 147.512 26.2997C146.58 26.2997 145.797 26.1748 145.165 25.9251C144.549 25.6753 144.057 25.3173 143.691 24.8511C143.325 24.3683 143.067 23.7938 142.917 23.1278C142.767 22.4451 142.692 21.6709 142.692 20.8051V9.49112Z" fill="#333333"/>
<path d="M158.651 26.1998C157.735 26.1998 156.811 26.1665 155.878 26.0999C154.946 26.05 154.13 25.9334 153.431 25.7502V8.94166C153.797 8.87506 154.188 8.81678 154.605 8.76683C155.021 8.70023 155.445 8.65028 155.878 8.61698C156.311 8.58367 156.736 8.5587 157.152 8.54205C157.585 8.5254 157.993 8.51707 158.376 8.51707C159.425 8.51707 160.399 8.60032 161.298 8.76683C162.197 8.91668 162.971 9.17476 163.621 9.54107C164.287 9.90738 164.803 10.3902 165.169 10.9897C165.536 11.5891 165.719 12.33 165.719 13.2125C165.719 14.0284 165.519 14.7277 165.119 15.3104C164.736 15.8932 164.195 16.3594 163.496 16.7091C164.545 17.0587 165.319 17.5749 165.819 18.2576C166.318 18.9402 166.568 19.806 166.568 20.855C166.568 22.6366 165.919 23.977 164.62 24.8761C163.321 25.7586 161.331 26.1998 158.651 26.1998ZM156.528 18.2076V23.4775C156.877 23.5108 157.252 23.5357 157.652 23.5524C158.051 23.569 158.418 23.5774 158.751 23.5774C159.4 23.5774 159.999 23.5357 160.549 23.4525C161.115 23.3692 161.598 23.2277 161.997 23.0279C162.414 22.8114 162.738 22.5284 162.971 22.1787C163.221 21.8291 163.346 21.3795 163.346 20.83C163.346 19.8477 162.988 19.165 162.272 18.782C161.556 18.3991 160.565 18.2076 159.3 18.2076H156.528ZM156.528 15.735H158.751C159.949 15.735 160.89 15.5685 161.573 15.2355C162.255 14.8859 162.597 14.2698 162.597 13.3873C162.597 12.5548 162.239 11.9637 161.523 11.614C160.824 11.2644 159.908 11.0896 158.776 11.0896C158.293 11.0896 157.86 11.0979 157.477 11.1145C157.11 11.1312 156.794 11.1562 156.528 11.1895V15.735ZM181.509 19.4564C181.509 20.4887 181.359 21.4295 181.059 22.2786C180.76 23.1278 180.335 23.8521 179.786 24.4515C179.236 25.0509 178.57 25.5171 177.788 25.8501C177.022 26.1832 176.173 26.3497 175.24 26.3497C174.308 26.3497 173.459 26.1832 172.693 25.8501C171.927 25.5171 171.269 25.0509 170.72 24.4515C170.17 23.8521 169.737 23.1278 169.421 22.2786C169.121 21.4295 168.971 20.4887 168.971 19.4564C168.971 18.4241 169.121 17.4916 169.421 16.6591C169.737 15.81 170.17 15.0857 170.72 14.4862C171.286 13.8868 171.952 13.4289 172.718 13.1126C173.483 12.7796 174.324 12.6131 175.24 12.6131C176.156 12.6131 176.997 12.7796 177.763 13.1126C178.545 13.4289 179.211 13.8868 179.761 14.4862C180.31 15.0857 180.735 15.81 181.034 16.6591C181.351 17.4916 181.509 18.4241 181.509 19.4564ZM178.412 19.4564C178.412 18.1577 178.129 17.1337 177.563 16.3844C177.013 15.6185 176.239 15.2355 175.24 15.2355C174.241 15.2355 173.459 15.6185 172.892 16.3844C172.343 17.1337 172.068 18.1577 172.068 19.4564C172.068 20.7718 172.343 21.8124 172.892 22.5783C173.459 23.3443 174.241 23.7272 175.24 23.7272C176.239 23.7272 177.013 23.3443 177.563 22.5783C178.129 21.8124 178.412 20.7718 178.412 19.4564ZM184.472 9.49112L187.495 8.99161V12.9378H192.14V15.4603H187.495V20.7801C187.495 21.8291 187.661 22.5783 187.994 23.0279C188.327 23.4775 188.893 23.7022 189.692 23.7022C190.242 23.7022 190.725 23.644 191.141 23.5274C191.574 23.4109 191.915 23.3026 192.165 23.2027L192.664 25.6004C192.315 25.7502 191.857 25.9001 191.291 26.05C190.725 26.2165 190.059 26.2997 189.293 26.2997C188.36 26.2997 187.578 26.1748 186.945 25.9251C186.329 25.6753 185.838 25.3173 185.472 24.8511C185.105 24.3683 184.847 23.7938 184.697 23.1278C184.547 22.4451 184.472 21.6709 184.472 20.8051V9.49112Z" fill="#2C4BFF"/>
<rect x="2" y="2" width="37.7236" height="25.7561" rx="3.12195" stroke="black" stroke-width="2.0813"/>
<circle cx="12.4067" cy="14.748" r="4.1626" stroke="black" stroke-width="2.0813"/>
<circle cx="13.4477" cy="14.748" r="1.56098" fill="black"/>
<circle cx="29.5776" cy="14.748" r="4.1626" stroke="black" stroke-width="2.0813"/>
<circle cx="30.6186" cy="14.748" r="1.56098" fill="black"/>
<path d="M8.24414 34H33.7401" stroke="black" stroke-width="2.0813" stroke-linecap="round"/>
</svg>
