<svg width="281" height="36" viewBox="0 0 281 36" fill="none" xmlns="http://www.w3.org/2000/svg">
<path d="M26.112 35C25.76 33.848 25.36 32.664 24.912 31.448C24.496 30.232 24.08 29.016 23.664 27.8H10.704C10.288 29.016 9.856 30.232 9.408 31.448C8.992 32.664 8.608 33.848 8.256 35H0.48C1.728 31.416 2.912 28.104 4.032 25.064C5.152 22.024 6.24 19.16 7.296 16.472C8.384 13.784 9.44 11.24 10.464 8.84C11.52 6.408 12.608 4.04 13.728 1.736H20.88C21.968 4.04 23.04 6.408 24.096 8.84C25.152 11.24 26.208 13.784 27.264 16.472C28.352 19.16 29.456 22.024 30.576 25.064C31.696 28.104 32.88 31.416 34.128 35H26.112ZM17.136 9.272C16.976 9.752 16.736 10.408 16.416 11.24C16.096 12.072 15.728 13.032 15.312 14.12C14.896 15.208 14.432 16.408 13.92 17.72C13.44 19.032 12.944 20.408 12.432 21.848H21.888C21.376 20.408 20.88 19.032 20.4 17.72C19.92 16.408 19.456 15.208 19.008 14.12C18.592 13.032 18.224 12.072 17.904 11.24C17.584 10.408 17.328 9.752 17.136 9.272ZM38.4338 1.736H45.9218V35H38.4338V1.736ZM74.2245 29.288C75.2805 29.288 76.1445 29.208 76.8165 29.048C77.5205 28.856 78.0805 28.616 78.4965 28.328C78.9125 28.008 79.2005 27.64 79.3605 27.224C79.5205 26.808 79.6005 26.344 79.6005 25.832C79.6005 24.744 79.0885 23.848 78.0645 23.144C77.0405 22.408 75.2805 21.624 72.7845 20.792C71.6965 20.408 70.6085 19.976 69.5205 19.496C68.4325 18.984 67.4565 18.36 66.5925 17.624C65.7285 16.856 65.0245 15.944 64.4805 14.888C63.9365 13.8 63.6645 12.488 63.6645 10.952C63.6645 9.416 63.9525 8.04 64.5285 6.824C65.1045 5.576 65.9205 4.52 66.9765 3.656C68.0325 2.792 69.3125 2.136 70.8165 1.688C72.3205 1.208 74.0165 0.967998 75.9045 0.967998C78.1445 0.967998 80.0805 1.208 81.7125 1.688C83.3445 2.168 84.6885 2.696 85.7445 3.272L83.5845 9.176C82.6565 8.696 81.6165 8.28 80.4645 7.928C79.3445 7.544 77.9845 7.352 76.3845 7.352C74.5925 7.352 73.2965 7.608 72.4965 8.12C71.7285 8.6 71.3445 9.352 71.3445 10.376C71.3445 10.984 71.4885 11.496 71.7765 11.912C72.0645 12.328 72.4645 12.712 72.9765 13.064C73.5205 13.384 74.1285 13.688 74.8005 13.976C75.5045 14.232 76.2725 14.504 77.1045 14.792C78.8325 15.432 80.3365 16.072 81.6165 16.712C82.8965 17.32 83.9525 18.04 84.7845 18.872C85.6485 19.704 86.2885 20.68 86.7045 21.8C87.1205 22.92 87.3285 24.28 87.3285 25.88C87.3285 28.984 86.2405 31.4 84.0645 33.128C81.8885 34.824 78.6085 35.672 74.2245 35.672C72.7525 35.672 71.4245 35.576 70.2405 35.384C69.0565 35.224 68.0005 35.016 67.0725 34.76C66.1765 34.504 65.3925 34.232 64.7205 33.944C64.0805 33.656 63.5365 33.384 63.0885 33.128L65.2005 27.176C66.1925 27.72 67.4085 28.216 68.8485 28.664C70.3205 29.08 72.1125 29.288 74.2245 29.288ZM106.482 21.608C106.482 19.304 106.178 17.672 105.57 16.712C104.994 15.752 103.986 15.272 102.546 15.272C102.098 15.272 101.634 15.304 101.154 15.368C100.674 15.4 100.21 15.448 99.762 15.512V35H92.61V10.616C93.218 10.456 93.922 10.296 94.722 10.136C95.554 9.944 96.418 9.784 97.314 9.656C98.242 9.496 99.186 9.384 100.146 9.32C101.106 9.224 102.05 9.176 102.978 9.176C104.802 9.176 106.274 9.416 107.394 9.896C108.546 10.344 109.49 10.888 110.226 11.528C111.25 10.792 112.418 10.216 113.73 9.8C115.074 9.384 116.306 9.176 117.426 9.176C119.442 9.176 121.09 9.464 122.37 10.04C123.682 10.584 124.722 11.368 125.49 12.392C126.258 13.416 126.786 14.632 127.074 16.04C127.362 17.448 127.506 19.016 127.506 20.744V35H120.354V21.608C120.354 19.304 120.05 17.672 119.442 16.712C118.866 15.752 117.858 15.272 116.418 15.272C116.034 15.272 115.49 15.368 114.786 15.56C114.114 15.752 113.554 15.992 113.106 16.28C113.33 17.016 113.474 17.8 113.538 18.632C113.602 19.432 113.634 20.296 113.634 21.224V35H106.482V21.608ZM143.649 30.008C144.353 30.008 145.025 29.992 145.665 29.96C146.305 29.928 146.817 29.88 147.201 29.816V24.392C146.913 24.328 146.481 24.264 145.905 24.2C145.329 24.136 144.801 24.104 144.321 24.104C143.649 24.104 143.009 24.152 142.401 24.248C141.825 24.312 141.313 24.456 140.865 24.68C140.417 24.904 140.065 25.208 139.809 25.592C139.553 25.976 139.425 26.456 139.425 27.032C139.425 28.152 139.793 28.936 140.529 29.384C141.297 29.8 142.337 30.008 143.649 30.008ZM143.073 9.08C145.185 9.08 146.945 9.32 148.353 9.8C149.761 10.28 150.881 10.968 151.713 11.864C152.577 12.76 153.185 13.848 153.537 15.128C153.889 16.408 154.065 17.832 154.065 19.4V34.28C153.041 34.504 151.617 34.76 149.793 35.048C147.969 35.368 145.761 35.528 143.169 35.528C141.537 35.528 140.049 35.384 138.705 35.096C137.393 34.808 136.257 34.344 135.297 33.704C134.337 33.032 133.601 32.168 133.089 31.112C132.577 30.056 132.321 28.76 132.321 27.224C132.321 25.752 132.609 24.504 133.185 23.48C133.793 22.456 134.593 21.64 135.585 21.032C136.577 20.424 137.713 19.992 138.993 19.736C140.273 19.448 141.601 19.304 142.977 19.304C143.905 19.304 144.721 19.352 145.425 19.448C146.161 19.512 146.753 19.608 147.201 19.736V19.064C147.201 17.848 146.833 16.872 146.097 16.136C145.361 15.4 144.081 15.032 142.257 15.032C141.041 15.032 139.841 15.128 138.657 15.32C137.473 15.48 136.449 15.72 135.585 16.04L134.673 10.28C135.089 10.152 135.601 10.024 136.209 9.896C136.849 9.736 137.537 9.608 138.273 9.512C139.009 9.384 139.777 9.288 140.577 9.224C141.409 9.128 142.241 9.08 143.073 9.08ZM175.748 16.088C175.108 15.928 174.356 15.768 173.492 15.608C172.628 15.416 171.7 15.32 170.708 15.32C170.26 15.32 169.716 15.368 169.076 15.464C168.468 15.528 168.004 15.608 167.684 15.704V35H160.532V11.096C161.812 10.648 163.316 10.232 165.044 9.848C166.804 9.432 168.756 9.224 170.9 9.224C171.284 9.224 171.748 9.256 172.292 9.32C172.836 9.352 173.38 9.416 173.924 9.512C174.468 9.576 175.012 9.672 175.556 9.8C176.1 9.896 176.564 10.024 176.948 10.184L175.748 16.088ZM180.542 3.464L187.694 2.312V9.752H196.286V15.704H187.694V24.584C187.694 26.088 187.95 27.288 188.462 28.184C189.006 29.08 190.078 29.528 191.678 29.528C192.446 29.528 193.23 29.464 194.03 29.336C194.862 29.176 195.614 28.968 196.286 28.712L197.294 34.28C196.43 34.632 195.47 34.936 194.414 35.192C193.358 35.448 192.062 35.576 190.526 35.576C188.574 35.576 186.958 35.32 185.678 34.808C184.398 34.264 183.374 33.528 182.606 32.6C181.838 31.64 181.294 30.488 180.974 29.144C180.686 27.8 180.542 26.312 180.542 24.68V3.464ZM213.678 35.432C211.854 35.432 210.03 35.368 208.206 35.24C206.414 35.144 204.542 34.888 202.59 34.472V2.216C204.126 1.928 205.806 1.72 207.63 1.592C209.454 1.432 211.15 1.352 212.718 1.352C214.83 1.352 216.766 1.512 218.526 1.832C220.318 2.12 221.854 2.632 223.134 3.368C224.414 4.104 225.406 5.08 226.11 6.296C226.846 7.48 227.214 8.952 227.214 10.712C227.214 13.368 225.934 15.464 223.374 17C225.486 17.8 226.926 18.888 227.694 20.264C228.462 21.64 228.846 23.192 228.846 24.92C228.846 28.408 227.566 31.032 225.006 32.792C222.478 34.552 218.702 35.432 213.678 35.432ZM209.886 20.504V29.096C210.43 29.16 211.022 29.208 211.662 29.24C212.302 29.272 213.006 29.288 213.774 29.288C216.014 29.288 217.822 28.968 219.198 28.328C220.574 27.688 221.262 26.504 221.262 24.776C221.262 23.24 220.686 22.152 219.534 21.512C218.382 20.84 216.734 20.504 214.59 20.504H209.886ZM209.886 14.792H213.534C215.838 14.792 217.486 14.504 218.478 13.928C219.47 13.32 219.966 12.36 219.966 11.048C219.966 9.704 219.454 8.76 218.43 8.216C217.406 7.672 215.902 7.4 213.918 7.4C213.278 7.4 212.59 7.416 211.854 7.448C211.118 7.448 210.462 7.48 209.886 7.544V14.792ZM257.976 22.328C257.976 24.312 257.688 26.136 257.112 27.8C256.536 29.432 255.704 30.84 254.616 32.024C253.528 33.176 252.216 34.072 250.68 34.712C249.176 35.352 247.48 35.672 245.592 35.672C243.736 35.672 242.04 35.352 240.504 34.712C239 34.072 237.704 33.176 236.616 32.024C235.528 30.84 234.68 29.432 234.072 27.8C233.464 26.136 233.16 24.312 233.16 22.328C233.16 20.344 233.464 18.536 234.072 16.904C234.712 15.272 235.576 13.88 236.664 12.728C237.784 11.576 239.096 10.68 240.6 10.04C242.136 9.4 243.8 9.08 245.592 9.08C247.416 9.08 249.08 9.4 250.584 10.04C252.12 10.68 253.432 11.576 254.52 12.728C255.608 13.88 256.456 15.272 257.064 16.904C257.672 18.536 257.976 20.344 257.976 22.328ZM250.68 22.328C250.68 20.12 250.232 18.392 249.336 17.144C248.472 15.864 247.224 15.224 245.592 15.224C243.96 15.224 242.696 15.864 241.8 17.144C240.904 18.392 240.456 20.12 240.456 22.328C240.456 24.536 240.904 26.296 241.8 27.608C242.696 28.888 243.96 29.528 245.592 29.528C247.224 29.528 248.472 28.888 249.336 27.608C250.232 26.296 250.68 24.536 250.68 22.328ZM263.276 3.464L270.428 2.312V9.752H279.02V15.704H270.428V24.584C270.428 26.088 270.684 27.288 271.196 28.184C271.74 29.08 272.812 29.528 274.412 29.528C275.18 29.528 275.964 29.464 276.764 29.336C277.596 29.176 278.348 28.968 279.02 28.712L280.028 34.28C279.164 34.632 278.204 34.936 277.148 35.192C276.092 35.448 274.796 35.576 273.26 35.576C271.308 35.576 269.692 35.32 268.412 34.808C267.132 34.264 266.108 33.528 265.34 32.6C264.572 31.64 264.028 30.488 263.708 29.144C263.42 27.8 263.276 26.312 263.276 24.68V3.464Z" fill="#333333"/>
</svg>
